# File created by Blade
# Date/Time:  Thu Jan 22 16:10:14 2015
# Frame Rate: 120.000 fps
#------------------------------------------------------
:FULLY-SPECIFIED
:DEGREES
878
root -0.543691 33.635120 -2.871153 31.214849 28.339612 -16.634096
RightUpLeg -30.839979 -23.077936 7.593497
RightLeg -7.131538 -0.000000 0.000000
RightFoot -5.065007 -34.205367 33.225900
RightToeBase 13.550496 -0.000000 -0.000000
LeftUpLeg -61.346177 15.476833 36.004713
LeftLeg 18.278462 -0.000000 -0.000000
LeftFoot 3.849345 5.903049 -37.188992
LeftToeBase 10.485398 -0.000000 -0.000000
Spine 53.324269 -4.731970 -50.866490
RightShoulder -3.023282 -9.906204 -37.928516
RightArm -11.693327 21.553162 22.606214
RightForeArm 31.773671 -0.000000 14.471640
RightHand 5.351229 -0.000000 -28.754714
RightHandThumb1 -24.326973 -0.000000 -32.862282
LeftShoulder 0.583437 19.971297 34.541652
LeftArm 40.654043 -52.374803 -39.382255
LeftForeArm 27.724424 0.000000 4.463982
LeftHand -17.901310 -0.000000 -5.739265
LeftHandThumb1 -26.253704 0.000000 33.147579
Head -2.410330 -14.584408 -31.169060
879
root -0.541466 33.638250 -2.870610 31.169067 28.264597 -16.543992
RightUpLeg -30.750457 -23.080965 7.453337
RightLeg -7.136567 -0.000000 0.000000
RightFoot -5.123239 -34.166832 33.333107
RightToeBase 13.578180 -0.000000 -0.000000
LeftUpLeg -61.214211 15.391489 35.964378
LeftLeg 18.237802 -0.000000 -0.000000
LeftFoot 3.809735 5.984896 -37.193831
LeftToeBase 10.488006 -0.000000 -0.000000
Spine 53.314731 -4.672827 -50.840628
RightShoulder -2.984874 -9.874479 -37.916756
RightArm -11.721389 21.497317 22.536948
RightForeArm 31.866103 -0.000000 14.559149
RightHand 5.444520 -0.000000 -28.834531
RightHandThumb1 -24.326973 -0.000000 -32.862282
LeftShoulder 0.621434 19.966140 34.507483
LeftArm 40.711296 -52.285120 -39.441810
LeftForeArm 27.704158 0.000000 4.431588
LeftHand -17.936591 -0.000000 -5.795136
LeftHandThumb1 -26.253704 0.000000 33.147579
Head -2.330998 -14.591739 -31.167975
880
root -0.541609 33.640196 -2.867394 31.092211 28.199146 -16.476873
RightUpLeg -30.632863 -23.087723 7.337003
RightLeg -7.142553 -0.000000 0.000000
RightFoot -5.060566 -34.155767 33.266874
RightToeBase 13.545387 -0.000000 -0.000000
LeftUpLeg -61.043610 15.232193 36.050073
LeftLeg 18.212495 -0.000000 -0.000000
LeftFoot 3.700607 6.135562 -37.248629
LeftToeBase 10.548256 -0.000000 -0.000000
Spine 53.299814 -4.623341 -50.795244
RightShoulder -2.932785 -9.856675 -37.955753
RightArm -11.707941 21.581654 22.522562
RightForeArm 31.723524 -0.000000 14.639673
RightHand 5.475801 -0.000000 -28.926022
RightHandThumb1 -24.326973 -0.000000 -32.862282
LeftShoulder 0.649909 20.069855 34.470228
LeftArm 40.844067 -52.229899 -39.589899
LeftForeArm 27.734882 -0.000000 4.419349
LeftHand -17.807554 -0.000000 -5.913753
LeftHandThumb1 -26.253704 0.000000 33.147579
Head -2.229133 -14.550376 -31.213653
881
root -0.539864 33.643418 -2.865187 31.003041 28.103630 -16.403576
RightUpLeg -30.490764 -23.058383 7.180816
RightLeg -7.164443 -0.000000 0.000000
RightFoot -5.097950 -34.146996 33.333309
RightToeBase 13.625671 -0.000000 -0.000000
LeftUpLeg -60.860878 15.122177 36.060625
LeftLeg 18.188036 -0.000000 -0.000000
LeftFoot 3.642911 6.235036 -37.249689
LeftToeBase 10.524454 -0.000000 -0.000000
Spine 53.302087 -4.569173 -50.786224
RightShoulder -2.921630 -9.857842 -37.987642
RightArm -11.603770 21.662602 22.517265
RightForeArm 31.693412 -0.000000 14.675705
RightHand 5.496373 0.000000 -28.957664
RightHandThumb1 -24.326973 -0.000000 -32.862282
LeftShoulder 0.646755 20.089339 34.412947
LeftArm 40.842980 -52.113567 -39.642865
LeftForeArm 27.736912 -0.000000 4.426421
LeftHand -17.777678 0.000000 -5.730228
LeftHandThumb1 -26.253704 0.000000 33.147579
Head -2.210449 -14.596149 -31.265128
882
root -0.538596 33.646252 -2.860901 30.895518 27.987374 -16.336554
RightUpLeg -30.346395 -23.050603 7.046420
RightLeg -7.176704 -0.000000 0.000000
RightFoot -5.083237 -34.109062 33.338897
RightToeBase 13.638040 -0.000000 -0.000000
LeftUpLeg -60.660095 15.032304 36.055449
LeftLeg 18.174635 -0.000000 -0.000000
LeftFoot 3.572090 6.323359 -37.251381
LeftToeBase 10.441273 -0.000000 -0.000000
Spine 53.275299 -4.470166 -50.756964
RightShoulder -2.876355 -9.780559 -37.997360
RightArm -11.583124 21.538102 22.474772
RightForeArm 31.647154 -0.000000 14.693862
RightHand 5.508687 -0.000000 -28.955465
RightHandThumb1 -24.326973 -0.000000 -32.862282
LeftShoulder 0.682721 20.142544 34.383639
LeftArm 40.866109 -51.996239 -39.737585
LeftForeArm 27.923399 -0.000000 4.473514
LeftHand -17.822235 -0.000000 -5.797555
LeftHandThumb1 -26.253704 0.000000 33.147579
Head -2.148122 -14.541102 -31.252648
883
root -0.536984 33.649621 -2.855994 30.783415 27.859663 -16.259709
RightUpLeg -30.194274 -23.040376 6.896697
RightLeg -7.176600 -0.000000 0.000000
RightFoot -4.981924 -34.087859 33.219489
RightToeBase 13.522200 -0.000000 -0.000000
LeftUpLeg -60.439540 14.927593 36.055367
LeftLeg 18.160543 -0.000000 -0.000000
LeftFoot 3.496029 6.411344 -37.250974
LeftToeBase 10.417914 -0.000000 -0.000000
Spine 53.244405 -4.386489 -50.765944
RightShoulder -2.815484 -9.715574 -38.017333
RightArm -11.533983 21.441964 22.453599
RightForeArm 31.613285 -0.000000 14.734603
RightHand 5.524655 -0.000000 -29.005775
RightHandThumb1 -24.326973 -0.000000 -32.862282
LeftShoulder 0.682668 20.205123 34.333053
LeftArm 40.951700 -51.924147 -39.910615
LeftForeArm 28.026947 -0.000000 4.521791
LeftHand -17.909290 0.000000 -5.672181
LeftHandThumb1 -26.253704 0.000000 33.147579
Head -2.108813 -14.512636 -31.265633
884
root -0.537366 33.653262 -2.850552 30.674358 27.742893 -16.200843
RightUpLeg -30.063952 -23.061064 6.799494
RightLeg -7.185010 -0.000000 0.000000
RightFoot -4.947739 -34.014478 33.251140
RightToeBase 13.466513 -0.000000 -0.000000
LeftUpLeg -60.226437 14.822929 36.086722
LeftLeg 18.143679 -0.000000 -0.000000
LeftFoot 3.421765 6.510800 -37.278374
LeftToeBase 10.420656 -0.000000 -0.000000
Spine 53.194811 -4.297894 -50.728978
RightShoulder -2.771715 -9.771251 -37.990141
RightArm -11.434399 21.495779 22.396009
RightForeArm 31.518728 0.000000 14.728041
RightHand 5.486928 -0.000000 -29.007604
RightHandThumb1 -24.326973 -0.000000 -32.862282
LeftShoulder 0.696828 20.253261 34.287917
LeftArm 41.100012 -51.850024 -40.146176
LeftForeArm 28.166942 -0.000000 4.561361
LeftHand -17.884607 0.000000 -5.473882
LeftHandThumb1 -26.253704 0.000000 33.147579
Head -2.025557 -14.510258 -31.264095
885
root -0.536193 33.656474 -2.846840 30.556865 27.626284 -16.130444
RightUpLeg -29.926283 -23.097406 6.692909
RightLeg -7.193359 -0.000000 0.000000
RightFoot -4.840357 -33.944590 33.142562
RightToeBase 13.439472 -0.000000 -0.000000
LeftUpLeg -60.009660 14.698980 36.102528
LeftLeg 18.107272 -0.000000 -0.000000
LeftFoot 3.357754 6.659764 -37.221721
LeftToeBase 10.334760 -0.000000 -0.000000
Spine 53.166241 -4.207961 -50.663153
RightShoulder -2.775057 -9.780682 -38.022041
RightArm -11.330358 21.395562 22.388422
RightForeArm 31.529554 -0.000000 14.726267
RightHand 5.583377 0.000000 -29.125832
RightHandThumb1 -24.326973 -0.000000 -32.862282
LeftShoulder 0.703481 20.296427 34.181622
LeftArm 41.231925 -51.728582 -40.287094
LeftForeArm 28.314432 0.000000 4.562974
LeftHand -17.897264 -0.000000 -5.302372
LeftHandThumb1 -26.253704 0.000000 33.147579
Head -1.968112 -14.597903 -31.297350
886
root -0.534342 33.660500 -2.842574 30.437926 27.507299 -16.056701
RightUpLeg -29.786104 -23.141443 6.587105
RightLeg -7.205967 -0.000000 0.000000
RightFoot -4.809059 -33.869456 33.120386
RightToeBase 13.435762 -0.000000 -0.000000
LeftUpLeg -59.777843 14.558958 36.139822
LeftLeg 18.084702 -0.000000 -0.000000
LeftFoot 3.254856 6.780903 -37.211351
LeftToeBase 10.368530 -0.000000 -0.000000
Spine 53.151541 -4.156673 -50.652204
RightShoulder -2.719491 -9.764663 -38.023330
RightArm -11.239056 21.284560 22.356029
RightForeArm 31.544822 -0.000000 14.744232
RightHand 5.577898 -0.000000 -29.210089
RightHandThumb1 -24.326973 -0.000000 -32.862282
LeftShoulder 0.638546 20.295457 34.045365
LeftArm 41.263282 -51.528370 -40.343591
LeftForeArm 28.459176 -0.000000 4.573852
LeftHand -17.826710 0.000000 -5.293926
LeftHandThumb1 -26.253704 0.000000 33.147579
Head -2.005706 -14.560159 -31.279490
887
root -0.533085 33.663839 -2.836394 30.331327 27.389512 -15.999414
RightUpLeg -29.672394 -23.202905 6.520267
RightLeg -7.208225 -0.000000 0.000000
RightFoot -4.656407 -33.794378 32.942164
RightToeBase 13.442009 -0.000000 -0.000000
LeftUpLeg -59.560557 14.439210 36.194783
LeftLeg 18.069660 -0.000000 -0.000000
LeftFoot 3.156738 6.876623 -37.242310
LeftToeBase 10.441872 -0.000000 -0.000000
Spine 53.099440 -4.060402 -50.591267
RightShoulder -2.720200 -9.737748 -37.922156
RightArm -11.158451 21.115329 22.252172
RightForeArm 31.550464 0.000000 14.761375
RightHand 5.586590 -0.000000 -29.259121
RightHandThumb1 -24.326973 -0.000000 -32.862282
LeftShoulder 0.363533 20.140012 33.768384
LeftArm 41.746315 -51.164032 -40.516651
LeftForeArm 28.600836 -0.000000 4.413974
LeftHand -17.866365 -0.000000 -5.194650
LeftHandThumb1 -26.253704 0.000000 33.147579
Head -1.991265 -14.534846 -31.180138
